<svg width="42" height="42" viewBox="0 0 42 42" fill="none" xmlns="http://www.w3.org/2000/svg">
<g clip-path="url(#clip0_61570_89)">
<path d="M17.6313 0C12.4842 0.0021 8.09901 1.86942 7.27539 4.41H28.0049C27.1809 1.86774 22.7906 0 17.6402 0H17.6313ZM7.27539 6.09C8.01123 8.3601 11.6161 10.1262 16.1702 10.4483V42H19.1102V40.8122C21.5596 40.7014 23.2526 40.6043 24.0754 39.9134C24.8986 39.2217 26.5698 38.9579 27.8546 38.9903V41.2944C27.8546 41.6842 28.1704 42 28.5602 42H31.7984V41.2944H38.0564V42H41.2946C41.3872 42 41.479 41.9817 41.5646 41.9463C41.6502 41.9108 41.728 41.8589 41.7935 41.7933C41.859 41.7278 41.911 41.65 41.9464 41.5644C41.9819 41.4788 42.0002 41.3871 42.0002 41.2944V38.4833H41.2946V25.8665H42.0002V22.5456C42.0002 22.3585 41.9258 22.179 41.7935 22.0467C41.6612 21.9143 41.4817 21.84 41.2946 21.84H28.5602C28.373 21.84 28.1935 21.9143 28.0612 22.0467C27.9289 22.179 27.8546 22.3585 27.8546 22.5456V25.867H28.5602V37.3069C25.2207 37.3636 24.3249 37.6988 23.1207 38.5308C21.9166 39.3628 21.1535 39.081 19.1102 39.1478V10.4483C23.6642 10.1262 27.2691 8.3601 28.0049 6.09H7.27539ZM30.4082 24.3936H39.4466V39.4464H30.4082V24.3936ZM31.5119 25.8523V31.5475H38.3663V25.8523H31.5119ZM34.9391 32.8537C34.3375 32.8537 33.7606 33.0926 33.3352 33.518C32.9099 33.9434 32.6709 34.5203 32.6709 35.1219C32.6709 35.7234 32.9099 36.3004 33.3352 36.7257C33.7606 37.1511 34.3375 37.3901 34.9391 37.3901C35.5407 37.3901 36.1176 37.1511 36.543 36.7257C36.9684 36.3004 37.2073 35.7234 37.2073 35.1219C37.2073 34.5203 36.9684 33.9434 36.543 33.518C36.1176 33.0926 35.5407 32.8537 34.9391 32.8537Z" fill="black"/>
</g>
<defs>
<clipPath id="clip0_61570_89">
<rect width="42" height="42" fill="white"/>
</clipPath>
</defs>
</svg>
