<svg width="20" height="20" viewBox="0 0 20 20" fill="none" xmlns="http://www.w3.org/2000/svg">
<rect width="20" height="20" fill="#E5E5E5"/>
<g id="Desktop" clip-path="url(#clip0_0_1)">
<rect width="1920" height="4040" transform="translate(-1479 -3803)" fill="white"/>
<g id="footer">
<rect id="Rectangle" x="-1479" y="-176" width="1920" height="413" fill="#F7F6F8"/>
<rect id="Rectangle 6" x="-1074" y="-76" width="1109" height="161" fill="#D9D9D9" fill-opacity="0.51"/>
<g id="subcribe">
<g id="Frame 7">
<g id="subcribe__button">
<g id="Rectangle 2.1" filter="url(#filter0_d_0_1)">
<rect x="-351" y="-12" width="385" height="45" rx="22.5" fill="white"/>
<rect x="-350.5" y="-11.5" width="384" height="44" rx="22" stroke="#F2F2F2"/>
</g>
<g id="button-send">
<g id="Rectangle 2" filter="url(#filter1_d_0_1)">
<rect x="-11" y="-12" width="45" height="45" rx="22.5" fill="#36C3FF"/>
</g>
<g id="send 1" clip-path="url(#clip1_0_1)">
<path id="Vector" d="M7.29297 14.6768V18.5418C7.29297 18.8118 7.4663 19.0509 7.72297 19.1359C7.78713 19.1568 7.85297 19.1668 7.91797 19.1668C8.11297 19.1668 8.3013 19.0751 8.4213 18.9118L10.6821 15.8351L7.29297 14.6768Z" fill="white"/>
<path id="Vector_2" d="M19.7375 0.114931C19.5459 -0.0209027 19.2942 -0.0392361 19.0859 0.0699306L0.33587 9.8616C0.114204 9.97743 -0.0166296 10.2141 0.00170373 10.4633C0.0208704 10.7133 0.186704 10.9266 0.422537 11.0074L5.63504 12.7891L16.7359 3.29743L8.14587 13.6466L16.8817 16.6324C16.9467 16.6541 17.015 16.6658 17.0834 16.6658C17.1967 16.6658 17.3092 16.6349 17.4084 16.5749C17.5667 16.4783 17.6742 16.3158 17.7017 16.1333L19.9934 0.716597C20.0275 0.483264 19.9292 0.251597 19.7375 0.114931Z" fill="white"/>
</g>
</g>
</g>
</g>
</g>
</g>
</g>
<defs>
<filter id="filter0_d_0_1" x="-361" y="-22" width="405" height="65" filterUnits="userSpaceOnUse" color-interpolation-filters="sRGB">
<feFlood flood-opacity="0" result="BackgroundImageFix"/>
<feColorMatrix in="SourceAlpha" type="matrix" values="0 0 0 0 0 0 0 0 0 0 0 0 0 0 0 0 0 0 127 0" result="hardAlpha"/>
<feOffset/>
<feGaussianBlur stdDeviation="5"/>
<feColorMatrix type="matrix" values="0 0 0 0 0.436681 0 0 0 0 0.436681 0 0 0 0 0.436681 0 0 0 0.25 0"/>
<feBlend mode="normal" in2="BackgroundImageFix" result="effect1_dropShadow_0_1"/>
<feBlend mode="normal" in="SourceGraphic" in2="effect1_dropShadow_0_1" result="shape"/>
</filter>
<filter id="filter1_d_0_1" x="-21" y="-22" width="65" height="65" filterUnits="userSpaceOnUse" color-interpolation-filters="sRGB">
<feFlood flood-opacity="0" result="BackgroundImageFix"/>
<feColorMatrix in="SourceAlpha" type="matrix" values="0 0 0 0 0 0 0 0 0 0 0 0 0 0 0 0 0 0 127 0" result="hardAlpha"/>
<feOffset/>
<feGaussianBlur stdDeviation="5"/>
<feColorMatrix type="matrix" values="0 0 0 0 0.436681 0 0 0 0 0.436681 0 0 0 0 0.436681 0 0 0 0.25 0"/>
<feBlend mode="normal" in2="BackgroundImageFix" result="effect1_dropShadow_0_1"/>
<feBlend mode="normal" in="SourceGraphic" in2="effect1_dropShadow_0_1" result="shape"/>
</filter>
<clipPath id="clip0_0_1">
<rect width="1920" height="4040" fill="white" transform="translate(-1479 -3803)"/>
</clipPath>
<clipPath id="clip1_0_1">
<rect width="20" height="20" fill="white"/>
</clipPath>
</defs>
</svg>
